<svg width="70" height="70" viewBox="0 0 70 70" fill="none" xmlns="http://www.w3.org/2000/svg">
<g clip-path="url(#clip0)">
<path d="M55.4028 1.36719L65.621 11.5853C69.0169 14.9812 69.0169 20.4871 65.621 23.883L55.4028 34.1011L4.92387 34.1011C2.95965 34.1011 1.36731 32.5088 1.36731 30.5445L1.36731 4.92375C1.36731 2.95953 2.95965 1.36719 4.92387 1.36719L55.4028 1.36719Z" fill="#F5737F"/>
<path d="M45.4859 8.75073L64.8567 8.75073C66.3312 10.2252 67.1579 11.052 68.6324 12.5265V31.8972L32.9383 67.5912C31.5494 68.9801 29.2975 68.9801 27.9086 67.5912L9.79193 49.4745C8.40302 48.0856 8.40302 45.8338 9.79193 44.4449L45.4859 8.75073Z" fill="#91DEF5"/>
<path d="M59.8823 20.2351C61.3925 20.2351 62.6167 19.0109 62.6167 17.5007C62.6167 15.9906 61.3925 14.7664 59.8823 14.7664C58.3722 14.7664 57.1479 15.9906 57.1479 17.5007C57.1479 19.0109 58.3722 20.2351 59.8823 20.2351Z" fill="#F5737F"/>
<path d="M24.5517 25.899C26.0621 25.899 27.2865 24.6746 27.2865 23.1642C27.2865 21.6538 26.0621 20.4294 24.5517 20.4294C23.0413 20.4294 21.8169 21.6538 21.8169 23.1642C21.8169 24.6746 23.0413 25.899 24.5517 25.899Z" fill="white"/>
<path d="M13.012 15.0392C14.5224 15.0392 15.7468 13.8147 15.7468 12.3044C15.7468 10.794 14.5224 9.56958 13.012 9.56958C11.5016 9.56958 10.2772 10.794 10.2772 12.3044C10.2772 13.8147 11.5016 15.0392 13.012 15.0392Z" fill="white"/>
<path d="M68.6786 10.6386L69.6003 9.71703C70.1341 9.18315 70.1341 8.31746 69.6003 7.78344C69.0664 7.2497 68.2007 7.2497 67.6667 7.78344L66.745 8.70506L65.824 7.78399C65.5676 7.52765 65.2198 7.38355 64.8573 7.38355H63.3535L56.3704 0.400445C56.1139 0.1441 55.7663 0 55.4037 0L4.92471 0C2.20978 0 0.000976563 2.20867 0.000976563 4.92373L0.000976563 30.5447C0.000976563 33.2596 2.20978 35.4684 4.92471 35.4684H16.8355L8.82593 43.4781C7.89598 44.4081 7.38384 45.6445 7.38384 46.9597C7.38384 48.2748 7.89598 49.5113 8.82593 50.4414L26.9426 68.5581C27.8725 69.488 29.109 70.0001 30.4242 70.0001C31.7395 70.0001 32.9759 69.488 33.9059 68.5581L47.4746 54.9894C48.0087 54.4555 48.0087 53.5898 47.4746 53.0558C46.9408 52.5222 46.0751 52.5221 45.5412 53.0558L31.9723 66.6245C31.5588 67.038 31.009 67.2657 30.4242 67.2657C29.8395 67.2657 29.2896 67.038 28.8762 66.6245L10.7594 48.5078C10.346 48.0944 10.1182 47.5445 10.1182 46.9597C10.1182 46.3749 10.346 45.8251 10.7594 45.4117L46.0529 10.1182L64.2911 10.1182L64.8117 10.6388L61.6503 13.8002C61.1148 13.5435 60.5155 13.3995 59.8831 13.3995C57.6215 13.3995 55.7816 15.2395 55.7816 17.501C55.7816 19.7626 57.6215 21.6025 59.8831 21.6025C62.1447 21.6025 63.9846 19.7626 63.9846 17.501C63.9846 16.8686 63.8405 16.2692 63.5837 15.7338L66.7452 12.5724L67.2658 13.093V31.3311L54.2416 44.3554C53.7077 44.8893 53.7077 45.755 54.2416 46.289C54.7755 46.8228 55.6412 46.8228 56.1752 46.289L69.5998 32.8643C69.8562 32.6079 70.0003 32.2602 70.0003 31.8976V12.5264C70.0003 12.1639 69.8562 11.8162 69.5998 11.5597L68.6786 10.6386ZM24.5525 24.5318C23.7984 24.5318 23.1849 23.9184 23.1849 23.1643C23.1849 22.41 23.7984 21.7965 24.5525 21.7965C25.3066 21.7965 25.9201 22.41 25.9201 23.1643C25.9201 23.9183 25.3066 24.5318 24.5525 24.5318ZM45.4866 7.38368C45.1241 7.38368 44.7763 7.52778 44.5199 7.78413L28.6205 23.6834C28.6421 23.5132 28.6546 23.3401 28.6546 23.1641C28.6546 20.9023 26.8145 19.0621 24.5526 19.0621C22.2909 19.0621 20.4507 20.9023 20.4507 23.1641C20.4507 25.426 22.2908 27.266 24.5526 27.266C24.7286 27.266 24.9017 27.2536 25.0719 27.232L19.57 32.7339H4.92471C3.7175 32.7339 2.73532 31.7517 2.73532 30.5445L2.73532 4.92373C2.73532 3.71652 3.7175 2.73434 4.92471 2.73434L54.8373 2.73434L59.4866 7.38368L45.4866 7.38368ZM59.8831 18.8679C59.1292 18.8679 58.5159 18.2546 58.5159 17.5008C58.5159 16.7469 59.1292 16.1336 59.8831 16.1336C60.1951 16.1336 60.4822 16.2398 60.7125 16.4164C60.7488 16.4638 60.7873 16.51 60.8305 16.5532C60.8737 16.5964 60.9199 16.6349 60.9673 16.6712C61.1439 16.9015 61.2501 17.1886 61.2501 17.5006C61.2503 18.2546 60.6369 18.8679 59.8831 18.8679Z" fill="black"/>
<path d="M45.4719 40.4457C45.8345 40.4457 46.1823 40.3016 46.4387 40.0453L49.5322 36.9516C50.0661 36.4177 50.0661 35.552 49.5322 35.018C48.9983 34.4843 48.1326 34.4843 47.5987 35.018L45.4719 37.1449L38.7047 30.3778C38.171 29.8441 37.3051 29.8441 36.7713 30.3778C36.2374 30.9117 36.2374 31.7774 36.7713 32.3114L44.5052 40.0453C44.7617 40.3016 45.1095 40.4457 45.4719 40.4457Z" fill="black"/>
<path d="M56.1062 28.4445C55.5723 27.9108 54.7066 27.9108 54.1726 28.4445L52.4324 30.1847L50.499 28.2513L52.2391 26.5112C52.773 25.9773 52.773 25.1116 52.2391 24.5776C51.7052 24.0439 50.8395 24.0439 50.3055 24.5776L48.5654 26.3177L46.6319 24.3843L48.3721 22.6442C48.9059 22.1103 48.9061 21.2446 48.3721 20.7106C47.8382 20.177 46.9725 20.1768 46.4386 20.7106L43.7317 23.4174C43.4754 23.6738 43.3313 24.0216 43.3313 24.3842C43.3313 24.7467 43.4754 25.0944 43.7317 25.3509L51.4657 33.0847C51.7326 33.3516 52.0826 33.4851 52.4324 33.4851C52.7823 33.4851 53.1323 33.3516 53.3991 33.0847L56.106 30.3778C56.64 29.8441 56.64 28.9784 56.1062 28.4445Z" fill="black"/>
<path d="M40.9845 44.1637C41.657 44.5065 42.4804 44.2389 42.8233 43.5661C43.1661 42.8933 42.8985 42.0701 42.2256 41.7274L31.9782 36.507C31.4505 36.238 30.8097 36.3396 30.3909 36.7584C29.9722 37.1771 29.8706 37.8181 30.1395 38.3457L35.3599 48.593C35.6014 49.0672 36.0813 49.34 36.5792 49.3399C36.7879 49.3399 37 49.2919 37.1986 49.1906C37.8714 48.8479 38.139 48.0247 37.7964 47.3519L37.3772 46.5289L40.1617 43.7444L40.9845 44.1637ZM36.072 43.9672L34.4855 40.8529L37.5999 42.4395L36.072 43.9672Z" fill="black"/>
<path d="M27.8774 54.7398C27.3436 55.2737 27.3434 56.1394 27.8774 56.6734C28.1445 56.9402 28.4943 57.0738 28.8442 57.0738C29.194 57.0738 29.544 56.9402 29.8109 56.6734L31.7445 54.7399C33.3437 53.1407 33.3437 50.5387 31.7445 48.9394C30.2245 47.4194 27.7992 47.3453 26.1894 48.7147C26.1394 48.7525 26.0907 48.7927 26.0452 48.8384L25.944 48.9394C25.6857 49.1977 25.3424 49.3399 24.9773 49.3399C24.6121 49.3399 24.2688 49.1977 24.0105 48.9394C23.4775 48.4064 23.4775 47.539 24.0105 47.0058L25.944 45.0724C26.4779 44.5385 26.478 43.6728 25.944 43.1388C25.4101 42.6052 24.5444 42.605 24.0105 43.1388L22.0769 45.0722C20.4778 46.6714 20.4778 49.2736 22.0769 50.8729C22.8517 51.6475 23.8816 52.0741 24.9771 52.0741C26.0711 52.0741 27.0998 51.6486 27.8744 50.8756C27.8754 50.8747 27.8765 50.8738 27.8774 50.8729C28.4104 50.3397 29.2778 50.3397 29.8109 50.8729C30.0692 51.1311 30.2113 51.4743 30.2113 51.8395C30.2113 52.2048 30.0692 52.5481 29.8109 52.8062L27.8774 54.7398Z" fill="black"/>
<path d="M23.425 8.82598C22.7676 8.45493 21.9336 8.6868 21.5624 9.34441L12.7441 24.9649C12.3729 25.6225 12.605 26.4563 13.2626 26.8275C13.475 26.9474 13.7057 27.0044 13.9334 27.0044C14.4106 27.0044 14.8739 26.7543 15.1252 26.3091L23.9435 10.6886C24.3146 10.031 24.0826 9.19703 23.425 8.82598Z" fill="black"/>
<path d="M17.1139 12.3044C17.1139 10.0425 15.2738 8.20239 13.0119 8.20239C10.75 8.20239 8.90979 10.0425 8.90979 12.3044C8.90979 14.5662 10.7499 16.4065 13.0118 16.4065C15.2736 16.4065 17.1139 14.5662 17.1139 12.3044ZM11.6442 12.3044C11.6442 11.5502 12.2576 10.9368 13.0118 10.9368C13.7659 10.9368 14.3794 11.5502 14.3794 12.3044C14.3794 13.0586 13.7659 13.6721 13.0118 13.6721C12.2576 13.6721 11.6442 13.0586 11.6442 12.3044Z" fill="black"/>
<path d="M50.8575 48.3047C50.4966 48.3047 50.1452 48.451 49.8909 48.7054C49.6366 48.9596 49.4904 49.3123 49.4904 49.6719C49.4904 50.0316 49.6366 50.3843 49.8909 50.6385C50.1452 50.8928 50.4966 51.0391 50.8575 51.0391C51.2171 51.0391 51.5698 50.8929 51.8241 50.6385C52.0784 50.3843 52.2247 50.0316 52.2247 49.6719C52.2247 49.3123 52.0784 48.9596 51.8241 48.7054C51.5698 48.4511 51.2171 48.3047 50.8575 48.3047Z" fill="black"/>
</g>
<defs>
<clipPath id="clip0">
<rect width="70" height="70" fill="white"/>
</clipPath>
</defs>
</svg>
