<svg width="160" height="160" viewBox="0 0 160 160" fill="none" xmlns="http://www.w3.org/2000/svg">
<g clip-path="url(#clip0)">
<path d="M135.998 11.8312C133.717 10.6193 131.096 12.682 131.763 15.1774C132.517 17.9975 132.902 20.9691 132.86 24.037C132.859 24.0634 132.859 24.09 132.858 24.1164C132.813 26.9553 129.23 28.1998 127.414 26.0176C114.822 10.8885 98.2096 0 80 0C57.0877 0 36.7025 17.238 23.6759 38.4728C22.0571 41.1119 17.9646 40.1151 17.7676 37.0256C17.7657 36.9967 17.7641 36.9682 17.7622 36.9393C17.7559 36.8348 17.7506 36.7304 17.7459 36.6262C17.5746 32.7417 12.5666 31.3484 10.3479 34.5418C8.09697 37.7817 6.76928 41.7104 6.74544 45.9495C6.73822 47.2333 6.85305 48.4913 7.07893 49.7126C8.97759 59.9777 9.74748 70.426 8.96097 80.8358C8.84395 82.3862 8.78434 83.9118 8.78434 85.4074C8.78434 120.02 40.6686 148.078 80 148.078C119.331 148.078 151.216 120.02 151.216 85.4074C151.216 83.7738 151.145 82.1039 151.005 80.405C150.076 69.0839 150.604 57.665 152.702 46.5013C153.014 44.8377 153.198 43.13 153.244 41.3882C153.577 28.5898 146.501 17.4115 135.998 11.8312Z" fill="url(#paint0_linear)"/>
<path d="M19.7208 39.7458H7.75438C7.11218 41.6994 6.75767 43.7835 6.74544 45.9495C6.73822 47.2332 6.85305 48.4913 7.07893 49.7126C8.97759 59.9777 9.74748 70.426 8.96097 80.8357C8.84395 82.3862 8.78434 83.9118 8.78434 85.4073C8.78434 120.02 40.6686 148.078 80 148.078C119.331 148.078 151.216 120.02 151.216 85.4073C151.216 83.7738 151.145 82.1038 151.005 80.405C150.076 69.0839 150.604 57.6649 152.702 46.5013C153.014 44.8376 153.198 43.13 153.244 41.3882C153.258 40.8373 153.254 40.2905 153.241 39.7458H22.213C21.4127 40.0825 20.5067 40.0655 19.7208 39.7458Z" fill="url(#paint1_linear)"/>
<path d="M133.995 91.0765C133.995 122.558 109.821 148.079 80 148.079C50.1795 148.079 26.0054 122.558 26.0054 91.0765C26.0054 59.5951 50.1795 13.3943 80 13.3943C109.821 13.3943 133.995 59.5951 133.995 91.0765Z" fill="url(#paint2_linear)"/>
<path d="M32.4183 17.5881C32.4183 23.6951 27.7287 28.646 21.9436 28.646C16.1585 28.646 11.4692 23.6951 11.4692 17.5881C11.4692 11.4811 16.1588 2.51831 21.9439 2.51831C27.729 2.51831 32.4183 11.4811 32.4183 17.5881Z" fill="url(#paint3_linear)"/>
<path d="M11.4692 17.5881C11.4692 23.6951 16.1588 28.646 21.9439 28.646C27.7287 28.646 32.4186 23.6951 32.4186 17.5881C32.4186 16.0916 32.1356 14.4236 31.6252 12.7583H12.2627C11.7525 14.4236 11.4692 16.0916 11.4692 17.5881Z" fill="url(#paint4_linear)"/>
<path d="M142.438 96.8722C142.438 100.149 142.878 103.367 142.397 106.509C137.757 136.8 111.588 160 80.0002 160C45.1355 160 16.8723 131.737 16.8723 96.8722C16.8723 64.0258 41.9581 37.0388 74.0162 34.0242C75.986 33.8391 77.982 34.434 80.0002 34.434C114.865 34.4343 142.438 62.0076 142.438 96.8722Z" fill="url(#paint5_linear)"/>
<path d="M45.7678 137.206C41.7433 141.23 42.5198 147.989 47.3904 150.934C56.9079 156.688 68.0671 160 80.0003 160C96.2114 160 110.993 153.887 122.172 143.843C122.882 143.205 123.286 142.294 123.286 141.339C123.286 138.339 119.658 136.837 117.537 138.958C113.432 143.064 106.776 143.064 102.67 138.958C97.2065 133.494 89.796 130.425 82.069 130.425H75.5711C69.9316 130.425 65.3596 125.853 65.3596 120.213V119.616C65.3596 116.908 66.4354 114.31 68.3504 112.395C72.3381 108.408 72.3381 101.942 68.3504 97.9542C62.6996 92.3034 53.5378 92.3034 47.8873 97.9542L39.6501 106.191C36.2126 109.629 36.2126 115.202 39.6501 118.639L45.7681 124.757C49.2053 128.195 49.2053 133.768 45.7678 137.206Z" fill="url(#paint6_linear)"/>
<path d="M95.4863 75.4693C101.155 75.4693 103.993 82.3223 99.9852 86.3305C97.1654 89.1502 97.1654 93.7221 99.9852 96.5419C102.805 99.3617 107.377 99.3617 110.197 96.5419L112.486 94.2523C114.759 91.9794 118.444 91.9794 120.718 94.2523C123.788 97.3231 125.514 101.488 125.514 105.831C125.514 110.493 129.293 114.273 133.955 114.273C138.072 114.273 141.607 111.307 142.279 107.245C142.807 104.058 143.095 100.79 143.126 97.4611C143.447 62.3041 115.272 33.8065 80.1135 33.7447C77.6987 33.7403 75.316 33.8721 72.9715 34.1322C69.9632 34.466 68.6606 38.1105 70.8009 40.2508C72.2048 41.6547 72.2048 43.9311 70.8009 45.335C66.2064 49.9295 66.2064 57.3786 70.8009 61.9728L76.3849 67.5568C81.4506 72.6232 88.3218 75.4693 95.4863 75.4693Z" fill="url(#paint7_linear)"/>
<path d="M45.0613 91.1258C48.2735 87.9136 48.2735 82.7051 45.0613 79.4929L42.8059 77.2375C41.214 75.6457 41.214 73.065 42.8059 71.4734C45.3734 68.9059 43.5551 64.5156 39.9237 64.5156C33.4638 64.5156 28.2271 69.7523 28.2271 76.2122C28.2271 80.9379 29.5977 85.5619 32.1731 89.5239L32.3478 89.7925C35.198 94.1774 41.3631 94.824 45.0613 91.1258Z" fill="url(#paint8_linear)"/>
<path d="M143.129 96.8721C143.129 131.736 114.865 160 80.0008 160C78.2901 160 76.5944 159.933 74.9185 159.797C47.214 157.591 24.5498 137.497 18.4774 111.07C17.4276 106.507 16.8733 101.754 16.8733 96.8721C16.8733 93.7354 17.1011 90.6534 17.544 87.6404H142.458C142.901 90.6534 143.129 93.7354 143.129 96.8721Z" fill="url(#paint9_linear)"/>
<path d="M80.0002 160C114.865 160 143.128 131.737 143.128 96.872C143.128 62.0074 114.865 33.7441 80.0002 33.7441C45.1356 33.7441 16.8723 62.0074 16.8723 96.872C16.8723 131.737 45.1356 160 80.0002 160Z" fill="url(#paint10_linear)"/>
</g>
<defs>
<linearGradient id="paint0_linear" x1="67.3638" y1="17.072" x2="79.1279" y2="58.0113" gradientUnits="userSpaceOnUse">
<stop stop-color="#FEE97D"/>
<stop offset="1" stop-color="#FAC600"/>
</linearGradient>
<linearGradient id="paint1_linear" x1="79.9988" y1="49.1573" x2="79.9988" y2="116.395" gradientUnits="userSpaceOnUse">
<stop stop-color="#FAC600" stop-opacity="0"/>
<stop offset="0.1774" stop-color="#E8A91F" stop-opacity="0.177"/>
<stop offset="0.3677" stop-color="#D99039" stop-opacity="0.368"/>
<stop offset="0.5648" stop-color="#CE7E4B" stop-opacity="0.565"/>
<stop offset="0.7708" stop-color="#C87456" stop-opacity="0.771"/>
<stop offset="1" stop-color="#C5715A"/>
</linearGradient>
<linearGradient id="paint2_linear" x1="44.4258" y1="7.59507" x2="73.1304" y2="73.0037" gradientUnits="userSpaceOnUse">
<stop stop-color="#FEF056" stop-opacity="0"/>
<stop offset="1" stop-color="#FB2B3A"/>
</linearGradient>
<linearGradient id="paint3_linear" x1="16.1027" y1="10.4593" x2="27.5452" y2="21.9018" gradientUnits="userSpaceOnUse">
<stop stop-color="#FEE97D"/>
<stop offset="1" stop-color="#FAC600"/>
</linearGradient>
<linearGradient id="paint4_linear" x1="21.9439" y1="19.6603" x2="21.9439" y2="35.8312" gradientUnits="userSpaceOnUse">
<stop stop-color="#FAC600" stop-opacity="0"/>
<stop offset="0.1774" stop-color="#E8A91F" stop-opacity="0.177"/>
<stop offset="0.3677" stop-color="#D99039" stop-opacity="0.368"/>
<stop offset="0.5648" stop-color="#CE7E4B" stop-opacity="0.565"/>
<stop offset="0.7708" stop-color="#C87456" stop-opacity="0.771"/>
<stop offset="1" stop-color="#C5715A"/>
</linearGradient>
<linearGradient id="paint5_linear" x1="35.3749" y1="52.5918" x2="114.663" y2="131.88" gradientUnits="userSpaceOnUse">
<stop stop-color="#A0D4FF"/>
<stop offset="1" stop-color="#0593FC"/>
</linearGradient>
<linearGradient id="paint6_linear" x1="10.2707" y1="70.5484" x2="94.0179" y2="154.295" gradientUnits="userSpaceOnUse">
<stop stop-color="#A2E62E"/>
<stop offset="0.1231" stop-color="#97DE30"/>
<stop offset="0.3395" stop-color="#79CB36"/>
<stop offset="0.6234" stop-color="#4AAB3F"/>
<stop offset="0.9609" stop-color="#09804C"/>
<stop offset="1" stop-color="#017B4E"/>
</linearGradient>
<linearGradient id="paint7_linear" x1="79.1962" y1="41.2327" x2="133.79" y2="95.8266" gradientUnits="userSpaceOnUse">
<stop stop-color="#A2E62E"/>
<stop offset="0.1231" stop-color="#97DE30"/>
<stop offset="0.3395" stop-color="#79CB36"/>
<stop offset="0.6234" stop-color="#4AAB3F"/>
<stop offset="0.9609" stop-color="#09804C"/>
<stop offset="1" stop-color="#017B4E"/>
</linearGradient>
<linearGradient id="paint8_linear" x1="32.7629" y1="73.0599" x2="48.5226" y2="88.8193" gradientUnits="userSpaceOnUse">
<stop stop-color="#A2E62E"/>
<stop offset="0.1231" stop-color="#97DE30"/>
<stop offset="0.3395" stop-color="#79CB36"/>
<stop offset="0.6234" stop-color="#4AAB3F"/>
<stop offset="0.9609" stop-color="#09804C"/>
<stop offset="1" stop-color="#017B4E"/>
</linearGradient>
<linearGradient id="paint9_linear" x1="83.1236" y1="108.104" x2="99.2149" y2="159.101" gradientUnits="userSpaceOnUse">
<stop stop-color="#2740B0" stop-opacity="0"/>
<stop offset="0.3153" stop-color="#243BA4" stop-opacity="0.315"/>
<stop offset="0.8855" stop-color="#1B2D84" stop-opacity="0.886"/>
<stop offset="1" stop-color="#192A7D"/>
</linearGradient>
<linearGradient id="paint10_linear" x1="86.3958" y1="103.268" x2="26.9075" y2="43.7793" gradientUnits="userSpaceOnUse">
<stop stop-color="#B3DAFE" stop-opacity="0"/>
<stop offset="0.2577" stop-color="#C5C2C1" stop-opacity="0.258"/>
<stop offset="0.8504" stop-color="#F28628" stop-opacity="0.85"/>
<stop offset="1" stop-color="#FE7701"/>
</linearGradient>
<clipPath id="clip0">
<rect width="160" height="160" fill="white"/>
</clipPath>
</defs>
</svg>
