<svg width="70" height="70" viewBox="0 0 70 70" fill="none" xmlns="http://www.w3.org/2000/svg">
<g clip-path="url(#clip0)">
<path d="M6.58257 0.000976562C2.9471 0.000976562 0 2.94807 0 6.58341V63.8483C0 64.9808 0.918199 65.899 2.05077 65.899H43.203C44.3355 65.899 45.2537 64.9808 45.2537 63.8483V0.410995L6.58257 0.000976562Z" fill="#EDF5FF"/>
<path d="M45.2538 0.410302V63.8475C45.2538 64.9796 44.3351 65.8983 43.203 65.8983H22.627V0.169678L45.2538 0.410302Z" fill="#CEE8FF"/>
<path d="M6.57825 0.000976562H44.8911C48.5279 0.000976562 51.4762 2.9493 51.4762 6.58615V10.4553C51.4762 11.5878 50.558 12.506 49.4255 12.506H15.2142C14.0816 12.506 13.1634 11.5878 13.1634 10.4553V6.58615C13.1634 2.94917 10.2151 0.000976562 6.57825 0.000976562Z" fill="#CEE8FF"/>
<path d="M51.476 6.58672V10.4559C51.476 11.5879 50.5586 12.5066 49.4252 12.5066H22.627V0.000976562H44.8916C48.5283 0.000976562 51.476 2.94863 51.476 6.58672Z" fill="#AEDAFF"/>
<path d="M13.4524 21.1768L10.8693 23.7599L10.2686 23.1593C9.46783 22.3584 8.16927 22.3584 7.36837 23.1593C6.56748 23.9602 6.56748 25.2586 7.36837 26.0595L9.41915 28.1103C10.2199 28.9112 11.5185 28.9113 12.3194 28.1103L16.3526 24.0771C17.1535 23.2762 17.1535 21.9777 16.3526 21.1768C15.5518 20.3759 14.2533 20.3759 13.4524 21.1768Z" fill="#00E97B"/>
<path d="M13.4524 33.6183L10.8693 36.2014L10.2686 35.6007C9.46783 34.7999 8.16927 34.7999 7.36837 35.6007C6.56748 36.4014 6.56748 37.7 7.36837 38.5009L9.41915 40.5517C10.2202 41.3526 11.5185 41.3526 12.3194 40.5517L16.3526 36.5185C17.1535 35.7177 17.1535 34.4192 16.3526 33.6183C15.5518 32.8174 14.2533 32.8174 13.4524 33.6183Z" fill="#00E97B"/>
<path d="M13.4521 45.8667L10.8691 48.4499L10.2683 47.8491C9.46758 47.0483 8.16903 47.0483 7.36813 47.8491C6.56723 48.6499 6.56723 49.9484 7.36813 50.7493L9.41891 52.8001C10.2199 53.601 11.5182 53.601 12.3191 52.8001L16.3523 48.7669C17.1532 47.9661 17.1532 46.6676 16.3523 45.8667C15.5516 45.0659 14.253 45.0659 13.4521 45.8667Z" fill="#00E97B"/>
<path d="M22.4902 26.7969H36.4355C37.5681 26.7969 38.4863 25.8787 38.4863 24.7461C38.4863 23.6135 37.5681 22.6953 36.4355 22.6953H22.4902C21.3577 22.6953 20.4395 23.6135 20.4395 24.7461C20.4395 25.8787 21.3577 26.7969 22.4902 26.7969Z" fill="#00E97B"/>
<path d="M38.4863 24.7461C38.4863 25.8781 37.5676 26.7969 36.4355 26.7969H22.627V22.6953H36.4355C37.5676 22.6953 38.4863 23.6141 38.4863 24.7461Z" fill="#00CA7D"/>
<path d="M36.4355 35H22.4902C21.3577 35 20.4395 35.9182 20.4395 37.0508C20.4395 38.1834 21.3577 39.1016 22.4902 39.1016H36.4355C37.5681 39.1016 38.4863 38.1834 38.4863 37.0508C38.4863 35.9182 37.5681 35 36.4355 35Z" fill="#00E97B"/>
<path d="M38.4862 37.0508C38.4862 38.1828 37.5675 39.1016 36.4354 39.1016H22.6268V35H36.4354C37.5675 35 38.4862 35.9188 38.4862 37.0508Z" fill="#00CA7D"/>
<path d="M36.4355 47.2485H22.4902C21.3577 47.2485 20.4395 48.1667 20.4395 49.2993C20.4395 50.4319 21.3577 51.3501 22.4902 51.3501H36.4355C37.5681 51.3501 38.4863 50.4319 38.4863 49.2993C38.4863 48.1667 37.5681 47.2485 36.4355 47.2485Z" fill="#00E97B"/>
<path d="M38.4862 49.2993C38.4862 50.4313 37.5675 51.3501 36.4354 51.3501H22.6268V47.2485H36.4354C37.5675 47.2485 38.4862 48.1673 38.4862 49.2993Z" fill="#00CA7D"/>
<path d="M45.3152 69.9998C56.2638 69.9998 65.1394 61.1243 65.1394 50.1757C65.1394 39.2271 56.2638 30.3516 45.3152 30.3516C34.3667 30.3516 25.4911 39.2271 25.4911 50.1757C25.4911 61.1243 34.3667 69.9998 45.3152 69.9998Z" fill="#FF7900"/>
<path d="M65.1394 50.1757C65.1394 61.1063 56.2459 69.9998 45.3153 69.9998V30.3516C56.2459 30.3516 65.1394 39.2451 65.1394 50.1757Z" fill="#FF4800"/>
<path d="M45.3153 65.8984C53.9987 65.8984 61.038 58.8592 61.038 50.1758C61.038 41.4924 53.9987 34.4531 45.3153 34.4531C36.6319 34.4531 29.5927 41.4924 29.5927 50.1758C29.5927 58.8592 36.6319 65.8984 45.3153 65.8984Z" fill="#FFDA2D"/>
<path d="M61.038 50.1758C61.038 58.8451 53.9846 65.8984 45.3153 65.8984V34.4531C53.9846 34.4531 61.038 41.5064 61.038 50.1758Z" fill="#FFAA17"/>
<path d="M45.3152 61.1133C51.3558 61.1133 56.2527 56.2164 56.2527 50.1758C56.2527 44.1352 51.3558 39.2383 45.3152 39.2383C39.2746 39.2383 34.3777 44.1352 34.3777 50.1758C34.3777 56.2164 39.2746 61.1133 45.3152 61.1133Z" fill="#FF7900"/>
<path d="M56.2528 50.1758C56.2528 56.2064 51.346 61.1133 45.3153 61.1133V39.2383C51.346 39.2383 56.2528 44.1451 56.2528 50.1758Z" fill="#FF4800"/>
<path d="M45.3152 57.0117C49.0906 57.0117 52.1511 53.9512 52.1511 50.1758C52.1511 46.4004 49.0906 43.3398 45.3152 43.3398C41.5398 43.3398 38.4792 46.4004 38.4792 50.1758C38.4792 53.9512 41.5398 57.0117 45.3152 57.0117Z" fill="#FFDA2D"/>
<path d="M52.1512 50.1758C52.1512 53.9451 49.0846 57.0117 45.3153 57.0117V43.3398C49.0846 43.3398 52.1512 46.4064 52.1512 50.1758Z" fill="#FFAA17"/>
<path d="M68.5976 33.3301L63.7698 31.721L62.1606 26.8932C61.6795 25.4498 59.8427 25.014 58.765 26.0916L51.5144 33.3422C50.965 33.8914 50.7733 34.7039 51.0189 35.4408L52.5516 40.0389L43.8651 48.7255C43.0642 49.5263 43.0642 50.8248 43.8651 51.6257C44.666 52.4267 45.9644 52.4266 46.7653 51.6257L55.4519 42.9392C60.1698 44.4756 60.1156 44.577 60.6982 44.577C61.2336 44.577 61.7577 44.3673 62.1485 43.9763L69.3991 36.7257C70.4751 35.6501 70.0434 33.8121 68.5976 33.3301Z" fill="#0066B2"/>
<path d="M69.3997 36.7255L62.1481 43.977C61.7571 44.3681 61.2335 44.5772 60.6975 44.5772C60.1151 44.5772 60.1698 44.4761 55.4516 42.9394L46.7659 51.6265C46.3653 52.027 45.8403 52.2267 45.3153 52.2267V47.2747L52.5518 40.0395L51.0192 35.4417C50.7731 34.7048 50.9645 33.8913 51.5141 33.3431L58.7657 26.0915C59.8431 25.0142 61.6792 25.4503 62.1604 26.894L63.7696 31.7216L68.5972 33.3308C70.0436 33.812 70.4757 35.6509 69.3997 36.7255Z" fill="#004692"/>
</g>
<defs>
<clipPath id="clip0">
<rect width="70" height="70" fill="white"/>
</clipPath>
</defs>
</svg>
