<svg width="160" height="160" viewBox="0 0 160 160" fill="none" xmlns="http://www.w3.org/2000/svg">
<g clip-path="url(#clip0)">
<path d="M95.3223 128.93L60.0342 93.6416C57.8223 91.4297 57.8198 87.8518 60.0269 85.6447C60.8997 84.7719 61.9897 84.2434 63.1238 84.0652C64.8511 83.7856 66.6882 84.3142 68.0249 85.6509L58.938 76.5652C57.8333 75.4592 57.2778 74.0127 57.2791 72.5674C57.2791 72.2671 57.3035 71.9643 57.3511 71.6628C57.533 70.5276 58.0591 69.4399 58.9319 68.5671C59.7961 67.7029 60.8667 67.1792 61.9849 66.9936C63.5083 66.7397 65.1123 67.1108 66.3916 68.1081L62.9334 64.6499C61.8286 63.5451 61.2732 62.0925 61.2732 60.6472C61.272 60.3408 61.2976 60.0307 61.3489 59.728C61.5295 58.6013 62.0557 57.5185 62.9248 56.6494C63.7976 55.7766 64.8865 55.2492 66.0254 55.0698C67.7527 54.7915 69.5898 55.32 70.9265 56.6567L74.8865 60.6167C73.551 59.2812 73.0212 57.4428 73.2996 55.7155C73.479 54.5815 74.0039 53.4939 74.8792 52.6186C77.085 50.414 80.6665 50.4153 82.8772 52.6259L105.809 75.5593L105.874 75.4677C107.036 74.3056 108.406 73.4792 109.867 72.9861C113.474 71.7715 117.623 72.6015 120.5 75.4787L131.194 86.1721C133.25 88.2278 134.402 91.0122 134.407 93.915L134.413 100.604C134.415 103.731 135.659 106.73 137.874 108.944L140.259 111.328L112.985 138.601L109.938 135.554C107.911 133.528 105.216 132.307 102.358 132.121C99.7034 131.946 97.2046 130.813 95.3223 128.93Z" fill="#FECBAA"/>
<path d="M111.212 140.372L142.168 109.416C143.188 108.396 144.842 108.396 145.862 109.416L156.887 120.44C157.906 121.461 157.906 123.114 156.887 124.134L125.93 155.091C124.909 156.111 123.257 156.111 122.236 155.091L111.212 144.066C110.191 143.047 110.191 141.393 111.212 140.372Z" fill="#FDD559"/>
<path d="M64.6729 128.933L99.9609 93.6451C102.173 91.4332 102.174 87.8553 99.967 85.6483C99.0942 84.7743 98.0042 84.2469 96.8713 84.0675C95.1428 83.7892 93.3069 84.3177 91.969 85.6544L101.056 76.5675C102.161 75.4627 102.716 74.015 102.715 72.5697C102.715 72.2694 102.692 71.9666 102.643 71.6664C102.461 70.5311 101.935 69.4435 101.062 68.5707C100.199 67.7064 99.1272 67.1827 98.009 66.9972C96.4856 66.7433 94.8816 67.1144 93.6023 68.1104L97.0605 64.6522C98.1653 63.5475 98.7207 62.096 98.7207 60.6507C98.7219 60.3431 98.6963 60.0343 98.645 59.7315C98.4644 58.6048 97.9382 57.5208 97.0691 56.6529C96.1963 55.7801 95.1074 55.2516 93.9697 55.0733C92.2412 54.795 90.4053 55.3224 89.0674 56.659L85.1074 60.619C86.4429 59.2848 86.9727 57.4464 86.6943 55.7179C86.5161 54.5851 85.99 53.4974 85.1147 52.6222C82.9089 50.4164 79.3274 50.4188 77.1179 52.6283L54.1846 75.5616L54.1199 75.4713C52.9578 74.3092 51.5881 73.4828 50.127 72.9896C46.521 71.7738 42.3706 72.6051 39.4934 75.4823L28.8013 86.1756C26.7456 88.2313 25.592 91.0157 25.5884 93.9185L25.5811 100.608C25.5798 103.735 24.3359 106.733 22.1216 108.948L19.7363 111.332L47.0093 138.605L50.0574 135.558C52.0837 133.532 54.7791 132.311 57.6367 132.124C60.2905 131.95 62.7893 130.816 64.6729 128.933Z" fill="#FECBAA"/>
<path d="M48.783 140.376L17.826 109.419C16.8055 108.398 15.1514 108.398 14.1321 109.419L3.10675 120.444C2.08746 121.463 2.08746 123.117 3.10675 124.138L34.0638 155.094C35.0843 156.114 36.7371 156.114 37.7576 155.094L48.783 144.07C49.8023 143.049 49.8023 141.395 48.783 140.376Z" fill="#FF84A7"/>
<path d="M102.567 44.3616V94.2664C102.567 97.395 100.039 99.9255 96.9165 99.9255C95.6824 99.9255 94.5386 99.5288 93.6096 98.8538C92.1912 97.8284 91.2659 96.1572 91.2659 94.2664V107.117C91.2659 108.679 90.6348 110.095 89.613 111.117C89.4006 111.329 89.1699 111.526 88.9221 111.704C87.9907 112.379 86.8506 112.776 85.6165 112.776C84.3945 112.776 83.2666 112.389 82.3437 111.73C81.0876 110.833 80.2161 109.436 80.0159 107.826V112.717C80.0159 114.28 79.3811 115.698 78.3594 116.72C78.1445 116.938 77.9065 117.139 77.6562 117.317C76.731 117.986 75.5945 118.38 74.3652 118.38C73.1311 118.38 71.9873 117.982 71.0559 117.305C69.6374 116.279 68.7122 114.608 68.7122 112.717V107.117C68.7122 109.004 67.7869 110.68 66.3684 111.704C65.4407 112.379 64.2993 112.776 63.0627 112.776C59.9438 112.776 57.4121 110.242 57.4121 107.117V74.6838L57.3022 74.7034C55.6592 74.7034 54.1052 74.3188 52.7246 73.634C49.3152 71.9434 46.9678 68.4216 46.9678 64.353V49.231C46.9678 46.3245 48.1213 43.54 50.1709 41.4832L54.8962 36.7493C57.1057 34.5361 58.3459 31.5356 58.3459 28.4045V25.033H96.9165V29.342C96.9165 32.2083 97.9602 34.9768 99.8474 37.1301C101.602 39.1296 102.567 41.6992 102.567 44.3616Z" fill="#FEDFC5"/>
<path d="M99.967 85.6483C99.0942 84.7743 98.0042 84.2469 96.8713 84.0675C95.1428 83.7892 93.3069 84.3177 91.9702 85.6544L101.057 76.5675C102.162 75.4627 102.716 74.015 102.716 72.5697C102.716 72.2694 102.692 71.9667 102.643 71.6664C102.462 70.5299 101.936 69.4435 101.063 68.5707C100.199 67.7064 99.1272 67.1827 98.009 66.9972C96.4868 66.7433 94.8828 67.1144 93.6035 68.1104L97.0618 64.6522C98.1665 63.5475 98.7207 62.096 98.7207 60.6507C98.7231 60.3431 98.6963 60.0343 98.645 59.7315C98.4644 58.6048 97.9382 57.5208 97.0703 56.6529C96.1975 55.7801 95.1074 55.2516 93.9697 55.0733C92.2412 54.795 90.4053 55.3224 89.0686 56.659L85.1086 60.619C86.4429 59.2848 86.9739 57.4464 86.6943 55.7179C86.5161 54.5851 85.99 53.4974 85.1147 52.6222C82.9089 50.4164 79.3274 50.4188 77.1179 52.6283L54.1846 75.5616L54.1199 75.4713C52.9578 74.3092 51.5881 73.4828 50.127 72.9896C48.3972 72.4061 46.5417 72.2999 44.762 72.6588C46.1963 74.8255 48.1995 76.6224 50.6433 77.8346C51.3208 78.1703 52.0154 78.4522 52.7234 78.6805V107.117C52.7234 112.822 57.3608 117.463 63.0615 117.463C63.7463 117.463 64.4226 117.398 65.0806 117.267C65.8167 118.771 66.9128 120.094 68.2959 121.094C69.1541 121.719 70.0903 122.197 71.0754 122.529L99.9597 93.6439C102.173 91.4332 102.175 87.8553 99.967 85.6483Z" fill="#FFAE85"/>
<path d="M107.251 94.2665V74.3092C106.766 74.6485 106.304 75.0355 105.87 75.4688L105.807 75.5592L82.8735 52.6258C80.6641 50.4164 77.0813 50.4139 74.8767 52.6197C74.0015 53.495 73.4753 54.5814 73.2959 55.7154C73.0176 57.4439 73.5486 59.2823 74.8828 60.6166L70.9229 56.6566C69.5862 55.3199 67.7502 54.7926 66.0217 55.0709C64.884 55.2491 63.7939 55.7777 62.9211 56.6505C62.0532 57.5184 61.5271 58.6024 61.3452 59.7291C61.2952 60.0318 61.2683 60.3407 61.2708 60.6483C61.2708 62.0936 61.825 63.545 62.9309 64.6498L66.3892 68.108C65.1086 67.1119 63.5046 66.7408 61.9824 66.9947C60.8643 67.1803 59.7925 67.704 58.9282 68.5682C58.0554 69.441 57.5293 70.5274 57.3486 71.6639C57.2998 71.9642 57.2754 72.2669 57.2754 72.5672C57.2754 74.0126 57.8296 75.4603 58.9343 76.565L68.0212 85.652C66.6846 84.3153 64.8486 83.7867 63.1201 84.065C61.9873 84.2445 60.8972 84.7718 60.0244 85.6446C57.8174 87.8529 57.8198 91.4308 60.0317 93.6427L83.6719 117.283C84.3066 117.404 84.9561 117.465 85.614 117.465C87.804 117.465 89.8987 116.786 91.6614 115.508C92.1118 115.183 92.5366 114.821 92.9248 114.432C94.8767 112.482 95.9509 109.884 95.9509 107.118V104.57C96.2695 104.6 96.5906 104.614 96.9141 104.614C102.614 104.613 107.251 99.972 107.251 94.2665Z" fill="#FFAE85"/>
<path d="M102.567 44.3616V94.2664C102.567 97.395 100.039 99.9255 96.9165 99.9255C96.8323 99.9255 96.7419 99.9255 96.6504 99.9194C95.5225 99.8669 94.4763 99.4824 93.6169 98.8574C93.6133 98.8574 93.6133 98.8538 93.6096 98.8538C92.1912 97.8284 91.2659 96.1572 91.2659 94.2664V107.117C91.2659 108.679 90.6348 110.095 89.613 111.117C89.4006 111.329 89.1699 111.526 88.9221 111.704C87.9907 112.379 86.8506 112.776 85.6165 112.776C84.3945 112.776 83.2666 112.389 82.3437 111.73C81.0876 110.833 80.2161 109.436 80.0159 107.826V112.717C80.0159 114.28 79.3811 115.698 78.3594 116.72C78.1445 116.938 77.9065 117.139 77.6562 117.317C76.731 117.986 75.5945 118.38 74.3652 118.38C73.1311 118.38 71.9873 117.982 71.0559 117.305C69.6374 116.279 68.7122 114.608 68.7122 112.717V107.117C68.7122 109.004 67.7869 110.68 66.3684 111.704C65.4407 112.379 64.2993 112.776 63.0627 112.776C59.9438 112.776 57.4121 110.242 57.4121 107.117V74.6838L57.3022 74.7034C55.6592 74.7034 54.1052 74.3188 52.7246 73.634C49.3152 71.9434 46.9678 68.4216 46.9678 64.353V49.231C46.9678 46.3245 48.1213 43.54 50.1709 41.4832L54.8962 36.7493C56.2622 35.3796 57.2595 33.7109 57.8186 31.8921C58.1689 30.7678 58.3459 29.5825 58.3459 28.4045V25.033H96.9165V29.342C96.9165 30.3076 97.019 31.3269 97.2888 32.2583C97.738 34.0491 98.6133 35.7202 99.8474 37.1301C101.586 39.115 102.567 41.7175 102.567 44.3616Z" fill="#FEDFC5"/>
<path d="M102.567 44.3616V94.2664C102.567 97.395 100.039 99.9255 96.9165 99.9255C96.8323 99.9255 96.7419 99.9255 96.6504 99.9194C95.5225 99.8669 94.4763 99.4824 93.6169 98.8574L93.7134 50.7678C93.7134 50.4773 93.6475 50.0183 93.5254 49.4336C91.3696 38.9307 82.5037 31.8921 71.781 31.8921H57.8186C58.1689 30.7678 58.3459 29.5825 58.3459 28.4045V25.033H96.9165V29.342C96.9165 30.3076 97.019 31.3269 97.2888 32.2583C97.738 34.0491 98.6133 35.7202 99.8474 37.1301C101.586 39.115 102.567 41.7175 102.567 44.3616Z" fill="#FECBAA"/>
<path d="M99.4226 25.0342H55.6421C54.2004 25.0342 53.031 23.8647 53.031 22.4219V6.83105C53.031 5.38818 54.2004 4.21875 55.6421 4.21875H99.4226C100.864 4.21875 102.034 5.38818 102.034 6.83105V22.4219C102.034 23.8647 100.864 25.0342 99.4226 25.0342Z" fill="#83D9FF"/>
<path d="M65.7373 141.839L65.2673 144.135L65.7202 141.837C64.4507 141.587 63.2178 142.413 62.9675 143.683C62.7173 144.953 63.5437 146.185 64.8144 146.435C64.8181 146.437 64.8535 146.443 64.8572 146.444C65.0061 146.472 65.1538 146.487 65.3003 146.487C66.4026 146.487 67.3852 145.705 67.5989 144.582C67.843 143.31 67.0093 142.082 65.7373 141.839Z" fill="black"/>
<path d="M83.6571 142.593L83.8903 144.924L83.6498 142.594C82.362 142.726 81.4257 143.877 81.5587 145.165C81.682 146.371 82.7001 147.269 83.8866 147.269C83.9672 147.269 84.049 147.264 84.1295 147.257L84.1942 147.25C85.476 147.1 86.3854 145.944 86.2426 144.662C86.0985 143.381 84.9389 142.459 83.6571 142.593Z" fill="black"/>
<path d="M74.6849 142.888C74.6849 142.888 74.652 142.887 74.6508 142.887C73.3593 142.828 72.2801 143.832 72.2216 145.125C72.1642 146.417 73.1798 147.512 74.4725 147.571C74.5092 147.573 74.5446 147.573 74.5812 147.573C75.8263 147.573 76.8639 146.593 76.92 145.336C76.9786 144.043 75.9789 142.947 74.6849 142.888Z" fill="black"/>
<path d="M57.0799 139.458L57.0506 139.447C55.8324 139.01 54.5042 139.647 54.0672 140.865C53.629 142.084 54.276 143.431 55.4942 143.869C55.7567 143.963 56.024 144.007 56.2865 144.007C57.2472 144.007 58.1493 143.413 58.4923 142.456C58.9305 141.238 58.2982 139.895 57.0799 139.458Z" fill="black"/>
<path d="M92.5021 140.952L93.0795 143.224L92.4948 140.954C91.2412 141.277 90.4868 142.555 90.809 143.809C91.0812 144.866 92.0334 145.569 93.0771 145.569C93.2712 145.569 93.4677 145.544 93.6643 145.493C93.674 145.491 93.7155 145.48 93.7265 145.477C94.9704 145.138 95.6979 143.86 95.3659 142.613C95.0339 141.368 93.7509 140.627 92.5021 140.952Z" fill="black"/>
<path d="M100.975 137.997L101.904 140.147L100.968 137.999C99.7814 138.517 99.2382 139.897 99.7546 141.084C100.139 141.966 101.001 142.492 101.905 142.492C102.217 142.492 102.535 142.429 102.839 142.297C102.849 142.292 102.887 142.276 102.897 142.271C104.072 141.74 104.591 140.364 104.066 139.186C103.541 138.006 102.157 137.478 100.975 137.997Z" fill="black"/>
<path d="M48.1274 31.1561C48.5034 31.1561 48.8855 31.0658 49.2382 30.8778C50.3808 30.2687 50.8117 28.849 50.2026 27.7064C49.5935 26.5651 48.175 26.1317 47.0324 26.7421L47.0044 26.7567C45.863 27.3659 45.4443 28.7782 46.0534 29.9208C46.4734 30.7094 47.2888 31.1561 48.1274 31.1561Z" fill="black"/>
<path d="M21.0169 57.3339C21.3648 57.5158 21.7371 57.6025 22.1045 57.6025C22.948 57.6025 23.7635 57.1459 24.1822 56.3464L24.2237 56.2646C24.795 55.1025 24.3164 53.6975 23.1543 53.1274C22.0008 52.5586 20.6067 53.0273 20.0281 54.1735C19.43 55.3186 19.8719 56.7334 21.0169 57.3339Z" fill="black"/>
<path d="M17.7173 66.1512C17.9663 66.2354 18.219 66.2757 18.4692 66.2757C19.4458 66.2757 20.3576 65.6592 20.6885 64.6827L20.719 64.5899C21.0998 63.3533 20.4053 62.0411 19.1675 61.6614C17.9407 61.283 16.6382 61.9642 16.2463 63.1849C15.8349 64.4092 16.4929 65.7373 17.7173 66.1512Z" fill="black"/>
<path d="M25.6407 49.1344C26.057 49.4371 26.5392 49.5836 27.0177 49.5836C27.7416 49.5836 28.4569 49.2479 28.9147 48.618L28.9452 48.5765C29.6971 47.5243 29.4518 46.0643 28.402 45.3124C27.351 44.5592 25.8861 44.8009 25.1317 45.8507L27.0201 47.2399L25.1244 45.8605C24.3627 46.9078 24.5946 48.3739 25.6407 49.1344Z" fill="black"/>
<path d="M40.1707 36.2181C40.6626 36.2181 41.1582 36.0631 41.5818 35.7408C42.6267 34.9767 42.8526 33.5106 42.0884 32.4657C41.323 31.4208 39.857 31.1949 38.8133 31.9591L38.7547 32.0018C37.7244 32.7843 37.5193 34.2577 38.3018 35.2892C38.7632 35.8971 39.4627 36.2181 40.1707 36.2181Z" fill="black"/>
<path d="M15.6249 101.696C15.935 102.703 16.8603 103.348 17.8613 103.348C18.0895 103.348 18.3227 103.314 18.5522 103.243C19.7826 102.866 20.4772 101.562 20.1086 100.33C19.7558 99.0991 18.4802 98.3764 17.2387 98.7146C15.9899 99.0552 15.2538 100.344 15.5944 101.593C15.6017 101.617 15.6176 101.671 15.6249 101.696Z" fill="black"/>
<path d="M33.0906 42.3951C33.6998 42.3951 34.3089 42.1596 34.7691 41.6908C35.6834 40.7753 35.6834 39.2909 34.7691 38.3766C33.8536 37.4611 32.3692 37.4611 31.4537 38.3766L31.4146 38.4157C30.5089 39.3397 30.5272 40.8217 31.4512 41.7274C31.9066 42.1742 32.4986 42.3951 33.0906 42.3951Z" fill="black"/>
<path d="M18.2153 91.4772C18.0505 90.2041 16.8872 89.3007 15.6128 89.4521C14.3286 89.6059 13.4106 90.7717 13.5632 92.0571L13.5766 92.1511C13.7475 93.3156 14.7473 94.1506 15.8911 94.1506C16.0034 94.1506 16.1181 94.142 16.2341 94.1249C17.5097 93.9394 18.3947 92.7529 18.2153 91.4772Z" fill="black"/>
<path d="M15.2709 84.7644C15.2953 84.7644 15.3185 84.7656 15.3417 84.7656C16.6039 84.7656 17.6463 83.761 17.683 82.4902L17.6854 82.3901C17.6854 81.095 16.6356 80.0464 15.3417 80.0464C14.0563 80.0464 13.0138 81.0791 12.9979 82.3596C12.9637 83.6511 13.9806 84.7266 15.2709 84.7644Z" fill="black"/>
<path d="M15.7849 75.3649C15.9253 75.3893 16.0632 75.4015 16.2012 75.4015C17.3144 75.4015 18.302 74.6044 18.5058 73.4704C18.5119 73.4362 18.5168 73.402 18.5217 73.3678C18.7109 72.0873 17.8259 70.8959 16.5442 70.7079C15.2783 70.5199 14.093 71.3903 13.8891 72.6525C13.667 73.9245 14.5141 75.1366 15.7849 75.3649Z" fill="black"/>
<path d="M126.344 49.8742C126.798 50.5334 127.528 50.8862 128.272 50.8862C128.73 50.8862 129.194 50.7519 129.599 50.4724C130.665 49.74 130.935 48.28 130.202 47.2131L128.254 48.5168L130.195 47.2021C129.468 46.1303 128.01 45.8508 126.939 46.5771C125.868 47.3034 125.588 48.761 126.314 49.8327L126.344 49.8742Z" fill="black"/>
<path d="M138.313 73.4594C137.026 73.6035 136.101 74.7644 136.246 76.051L136.258 76.1523C136.426 77.3205 137.429 78.164 138.577 78.164C138.686 78.164 138.799 78.1567 138.911 78.1408C140.182 77.9589 141.068 76.7883 140.903 75.5187C140.755 74.2358 139.591 73.3154 138.313 73.4594Z" fill="black"/>
<path d="M134.358 66.8458L134.367 66.8763C134.668 67.898 135.602 68.5597 136.615 68.5597C136.833 68.5597 137.055 68.5292 137.276 68.4632C138.519 68.0982 139.23 66.7958 138.865 65.5531L138.855 65.5226C138.49 64.2799 137.187 63.5694 135.945 63.9356C134.703 64.3006 133.993 65.6031 134.358 66.8458Z" fill="black"/>
<path d="M131.047 58.0823C131.456 58.9136 132.292 59.3982 133.161 59.3982C133.507 59.3982 133.858 59.3213 134.189 59.1578C135.35 58.5865 135.832 57.19 135.26 56.0279L133.136 57.0179L135.257 56.023C134.708 54.8511 133.313 54.347 132.141 54.8963C130.969 55.4456 130.464 56.8409 131.013 58.0127L131.047 58.0823Z" fill="black"/>
<path d="M120.441 42.5551C120.9 43.0238 121.506 43.2582 122.114 43.2582C122.706 43.2582 123.298 43.036 123.755 42.588C124.673 41.6896 124.693 40.2211 123.808 39.2958C122.931 38.3497 121.451 38.2924 120.502 39.1688C119.551 40.0465 119.492 41.5297 120.37 42.4806L120.441 42.5551Z" fill="black"/>
<path d="M139.075 83.2459C137.787 83.2129 136.709 84.2225 136.664 85.5103C136.605 86.7933 137.59 87.8858 138.874 87.9578C138.919 87.9602 138.962 87.9615 139.007 87.9615C140.241 87.9615 141.275 86.9959 141.345 85.7471L141.349 85.6507C141.385 84.358 140.367 83.2837 139.075 83.2459Z" fill="black"/>
<path d="M105.453 31.0462L105.509 31.0767C105.858 31.2622 106.233 31.3501 106.601 31.3501C107.435 31.3501 108.242 30.9009 108.665 30.1135C109.276 28.9771 108.846 27.5562 107.713 26.9409L106.579 28.9917L107.706 26.9361C106.571 26.3135 105.146 26.7298 104.524 27.865C103.902 28.999 104.317 30.4248 105.453 31.0462Z" fill="black"/>
<path d="M113.38 36.1867L113.417 36.2147C113.84 36.5358 114.337 36.6908 114.831 36.6908C115.539 36.6908 116.239 36.371 116.7 35.7631C117.483 34.7316 117.28 33.2619 116.25 32.4794L116.234 32.4684C115.207 31.6798 113.736 31.8727 112.948 32.8993C112.159 33.9259 112.353 35.3981 113.38 36.1867Z" fill="black"/>
<path d="M158.553 118.728L147.551 107.706C146.615 106.769 145.371 106.252 144.047 106.252C142.723 106.252 141.478 106.769 140.543 107.706L140.288 107.961L139.565 107.239C138.673 106.344 137.982 105.303 137.513 104.169C137.472 104.019 137.417 103.872 137.346 103.734C136.987 102.726 136.801 101.653 136.801 100.551V97.4329C137.014 97.5452 137.247 97.6269 137.498 97.6697C137.632 97.6929 137.765 97.7038 137.897 97.7038C139.009 97.7038 139.993 96.9104 140.199 95.7825C140.449 94.5154 139.628 93.2837 138.359 93.0298C137.802 92.9187 137.25 93.0151 136.786 93.2666C136.642 89.9365 135.281 86.8262 132.913 84.4531L122.239 73.761C119.844 71.3623 116.659 70.0415 113.271 70.0415C110.649 70.0415 108.152 70.8362 106.045 72.3071L104.912 71.1682V44.3616C104.912 41.1304 103.739 38.0127 101.61 35.5847C100.095 33.8586 99.2615 31.6418 99.2615 29.342V27.3779H99.4226C102.155 27.3779 104.377 25.155 104.377 22.4219V6.83105C104.377 4.0979 102.155 1.875 99.4226 1.875H55.6421C52.9102 1.875 50.6873 4.0979 50.6873 6.83105V22.4219C50.6873 25.155 52.9102 27.3779 55.6421 27.3779H56.0034V28.4058C56.0034 30.9326 55.0208 33.3081 53.2373 35.094L48.512 39.8279C46.0046 42.3401 44.624 45.6787 44.624 49.231V64.3518C44.624 66.4062 45.1172 68.3459 45.9851 70.0647C42.8772 70.2441 39.9805 71.5393 37.7612 73.761L27.0874 84.4531C24.5801 86.9653 23.1995 90.3052 23.1995 93.8562V100.551C23.1995 103.077 22.218 105.453 20.4346 107.239L19.7205 107.954C19.7168 107.957 19.7144 107.959 19.7119 107.961L19.458 107.706C18.5217 106.769 17.2778 106.252 15.9534 106.252C14.6301 106.252 13.385 106.769 12.45 107.706L1.44653 118.728C-0.482178 120.66 -0.482178 123.805 1.44653 125.737L5.21484 129.51C6.12915 130.427 7.61353 130.428 8.52905 129.514C9.44458 128.599 9.44702 127.115 8.53149 126.199L4.7644 122.424C4.6582 122.318 4.6582 122.146 4.7644 122.04L15.7678 111.018C15.8704 110.916 16.0376 110.914 16.1401 111.018L18.053 112.935H18.0542L44.1736 139.099L47.0996 142.031C47.2058 142.137 47.2058 142.31 47.0996 142.416L36.0974 153.437C35.9937 153.541 35.8264 153.541 35.7239 153.437L15.1672 132.845C14.2529 131.929 12.7686 131.927 11.853 132.842C10.9363 133.757 10.9351 135.24 11.8494 136.157L32.4072 156.749C33.3423 157.687 34.5874 158.203 35.9119 158.203C37.2351 158.203 38.479 157.687 39.4153 156.749L50.4175 145.728C52.3462 143.796 52.3462 140.652 50.4175 138.719L50.2979 138.6L51.6858 137.209C53.3069 135.585 55.4602 134.608 57.749 134.46C60.9705 134.252 64.0015 132.877 66.283 130.591L76.3904 120.461C79.3054 119.696 81.5747 117.322 82.1912 114.348C83.23 114.843 84.3909 115.121 85.6165 115.121C90.0244 115.121 93.6108 111.531 93.6108 107.117V101.552C94.6191 102.012 95.7385 102.271 96.9177 102.271C101.326 102.271 104.911 98.6804 104.911 94.2663V77.8137L112.12 85.0586C112.578 85.5188 113.18 85.7483 113.782 85.7483C114.38 85.7483 114.978 85.5212 115.436 85.0659C116.353 84.1528 116.356 82.6697 115.443 81.7517L109.432 75.7117C110.596 75.0708 111.907 74.729 113.271 74.729C115.405 74.729 117.412 75.5615 118.921 77.074L129.595 87.7649C131.218 89.3921 132.113 91.5552 132.113 93.8562V100.551C132.113 104.329 133.582 107.88 136.248 110.551L136.975 111.279L133.575 114.685L113.014 135.282L111.868 134.133C111.855 134.122 111.844 134.11 111.832 134.099L111.631 133.896C109.204 131.466 105.98 130.005 102.555 129.783C100.471 129.647 98.5107 128.759 97.0276 127.274L89.3262 119.614C88.4082 118.701 86.9238 118.705 86.0107 119.623C85.0989 120.541 85.1025 122.025 86.0205 122.937L93.717 130.591C95.9985 132.877 99.0295 134.252 102.252 134.46C104.54 134.608 106.693 135.585 108.314 137.208L108.428 137.322C108.489 137.391 108.553 137.456 108.622 137.517L109.702 138.599L109.583 138.719C107.654 140.652 107.654 143.795 109.583 145.728L120.585 156.749C121.521 157.687 122.765 158.203 124.089 158.203C125.413 158.203 126.658 157.687 127.594 156.749L158.553 125.736C160.482 123.804 160.482 120.66 158.553 118.728ZM138.372 95.4224L138.328 95.415L137.9 95.3284L138.372 95.4224ZM62.9651 127.279C61.4893 128.759 59.5288 129.647 57.4463 129.783C54.0198 130.005 50.7959 131.466 48.3691 133.896L46.9861 135.282L45.741 134.034C45.7251 134.019 45.7092 134.001 45.6934 133.987L23.0249 111.279L23.7524 110.551C26.4185 107.88 27.887 104.329 27.887 100.551V93.8562C27.887 91.5552 28.7805 89.3921 30.4053 87.7649L41.0791 77.074C42.5879 75.5615 44.5947 74.729 46.7285 74.729C48.0969 74.729 49.4128 75.0732 50.5798 75.719L44.5593 81.7493C43.645 82.6648 43.6462 84.1492 44.5618 85.0635C45.0195 85.52 45.6189 85.7483 46.2183 85.7483C46.8188 85.7483 47.4194 85.5188 47.8772 85.061L55.0684 77.8564V107.117C55.0684 111.531 58.6548 115.121 63.0627 115.121C64.3054 115.121 65.4822 114.835 66.532 114.327C67.0081 116.65 68.4924 118.608 70.5042 119.724L62.9651 127.279ZM100.225 94.2676C100.225 96.0962 98.7402 97.5842 96.9177 97.5842C95.094 97.5842 93.6108 96.0962 93.6108 94.2676V68.1238C93.6108 66.8298 92.5623 65.78 91.2671 65.78C89.9719 65.78 88.9233 66.8298 88.9233 68.1238V107.118C88.9233 108.947 87.4402 110.433 85.6165 110.433C83.9795 110.433 82.6208 109.235 82.3584 107.666V68.0969C82.3584 66.8018 81.3098 65.7532 80.0146 65.7532C79.5984 65.7532 79.2065 65.863 78.8672 66.0535C78.1262 66.4477 77.6221 67.2266 77.6221 68.1238V107.117C77.6221 107.415 77.6392 107.706 77.6709 107.996V112.718C77.6709 114.547 76.1877 116.035 74.364 116.035C72.5415 116.035 71.0583 114.547 71.0583 112.718V68.0688C71.0583 66.7749 70.0085 65.7251 68.7146 65.7251C67.4194 65.7251 66.3696 66.7749 66.3696 68.0688V107.117C66.3696 108.945 64.8865 110.433 63.064 110.433C61.2402 110.433 59.7571 108.945 59.7571 107.117V63.5193C59.7571 62.2241 58.7073 61.1743 57.4133 61.1743C56.1182 61.1743 55.0696 62.2241 55.0696 63.5193V71.5832C54.873 71.6467 54.6826 71.7358 54.5056 71.853C51.4746 70.7141 49.3115 67.782 49.3115 64.3518V49.231C49.3115 46.9299 50.2063 44.7668 51.8298 43.1396L56.5552 38.4058C59.2224 35.7349 60.6909 32.1838 60.6909 28.4058V27.3779H65.4028C66.698 27.3779 67.7466 26.3281 67.7466 25.0342C67.7466 23.739 66.698 22.6904 65.4028 22.6904H55.6421C55.4944 22.6904 55.3748 22.5696 55.3748 22.4219V6.83105C55.3748 6.68335 55.4944 6.5625 55.6421 6.5625H99.4214C99.5703 6.5625 99.6899 6.68335 99.6899 6.83105V22.4219C99.6899 22.5708 99.5703 22.6904 99.4214 22.6904H76.4062C75.1123 22.6904 74.0625 23.739 74.0625 25.0342C74.0625 26.3281 75.1123 27.3779 76.4062 27.3779H94.574V29.342C94.574 32.7795 95.8203 36.0937 98.0847 38.6768C99.4641 40.249 100.225 42.2681 100.225 44.3616V94.2676ZM155.236 122.424L124.276 153.437C124.225 153.49 124.163 153.516 124.089 153.516C124.017 153.516 123.955 153.49 123.903 153.437L112.9 142.416C112.794 142.31 112.794 142.137 112.9 142.031L114.672 140.256L114.673 140.255L132.645 122.252L143.86 111.018C143.962 110.914 144.13 110.914 144.232 111.018L155.236 122.04C155.342 122.146 155.342 122.318 155.236 122.424Z" fill="black"/>
<path d="M63.0627 12.1265C61.687 12.1265 60.5676 13.2483 60.5676 14.6265C60.5676 16.0059 61.687 17.1265 63.0627 17.1265C64.4397 17.1265 65.5591 16.0059 65.5591 14.6265C65.5591 13.2483 64.4397 12.1265 63.0627 12.1265Z" fill="black"/>
<path d="M144.813 118.965C143.436 118.965 142.317 120.086 142.317 121.465C142.317 122.843 143.436 123.965 144.813 123.965C146.189 123.965 147.308 122.843 147.308 121.465C147.308 120.086 146.189 118.965 144.813 118.965Z" fill="black"/>
<path d="M39.0576 142.876C39.0576 141.498 37.9382 140.376 36.5625 140.376C35.1855 140.376 34.0662 141.498 34.0662 142.876C34.0662 144.254 35.1855 145.376 36.5625 145.376C37.9382 145.376 39.0576 144.254 39.0576 142.876Z" fill="black"/>
</g>
<defs>
<clipPath id="clip0">
<rect width="160" height="160" fill="white"/>
</clipPath>
</defs>
</svg>
