<svg width="24" height="24" viewBox="0 0 24 24" fill="none" xmlns="http://www.w3.org/2000/svg">
<g clip-path="url(#clip0)">
<path d="M12.004 5.83789C8.60098 5.83789 5.84598 8.59589 5.84598 11.9959C5.84598 15.3989 8.60398 18.1539 12.004 18.1539C15.407 18.1539 18.162 15.3959 18.162 11.9959C18.162 8.59289 15.404 5.83789 12.004 5.83789ZM12.004 15.9929C9.79498 15.9929 8.00698 14.2039 8.00698 11.9959C8.00698 9.78789 9.79598 7.99889 12.004 7.99889C14.212 7.99889 16.001 9.78789 16.001 11.9959C16.002 14.2039 14.213 15.9929 12.004 15.9929Z" fill="#F2F2F2"/>
<path d="M16.9477 0.0768515C14.7397 -0.0261485 9.27071 -0.0211485 7.06071 0.0768515C5.11871 0.167852 3.40571 0.636852 2.02471 2.01785C-0.283292 4.32585 0.0117085 7.43585 0.0117085 11.9969C0.0117085 16.6649 -0.248291 19.7029 2.02471 21.9759C4.34171 24.2919 7.49671 23.9889 12.0037 23.9889C16.6277 23.9889 18.2237 23.9919 19.8587 23.3589C22.0817 22.4959 23.7597 20.5089 23.9237 16.9399C24.0277 14.7309 24.0217 9.26285 23.9237 7.05285C23.7257 2.83985 21.4647 0.284852 16.9477 0.0768515ZM20.4427 20.4489C18.9297 21.9619 16.8307 21.8269 11.9747 21.8269C6.97471 21.8269 4.96971 21.9009 3.50671 20.4339C1.82171 18.7569 2.12671 16.0639 2.12671 11.9809C2.12671 6.45585 1.55971 2.47685 7.10471 2.19285C8.37871 2.14785 8.75371 2.13285 11.9607 2.13285L12.0057 2.16285C17.3347 2.16285 21.5157 1.60485 21.7667 7.14885C21.8237 8.41385 21.8367 8.79385 21.8367 11.9959C21.8357 16.9379 21.9297 18.9549 20.4427 20.4489Z" fill="#F2F2F2"/>
<path d="M18.406 7.03376C19.2007 7.03376 19.845 6.3895 19.845 5.59476C19.845 4.80002 19.2007 4.15576 18.406 4.15576C17.6113 4.15576 16.967 4.80002 16.967 5.59476C16.967 6.3895 17.6113 7.03376 18.406 7.03376Z" fill="#F2F2F2"/>
</g>
<defs>
<clipPath id="clip0">
<rect width="24" height="24" fill="white"/>
</clipPath>
</defs>
</svg>
