<svg width="120" height="120" viewBox="0 0 120 120" fill="none" xmlns="http://www.w3.org/2000/svg">
<rect width="120" height="120" rx="60" fill="#F4D54B"/>
<mask id="path-2-inside-1" fill="white">
<path d="M33.6112 90.9226C33.7375 90.9751 33.8685 91 33.9975 91C34.3865 91 34.7569 90.7737 34.9171 90.3972C37.4226 84.521 39.7453 80.0438 41.9935 76.492C43.5408 76.9013 48.9874 78.2197 54.9779 78.2197C58.9197 78.2197 63.0975 77.6484 66.5519 75.8715C78.1186 69.9205 88.8442 53.7058 86.7323 30.8948C86.6938 30.4809 86.3965 30.1359 85.9889 30.0316C85.5813 29.9273 85.1511 30.0867 84.9144 30.4304C80.3276 37.0727 66.4781 44.1454 51.2362 47.6289C45.1333 49.024 40.8258 52.3055 38.7805 57.1205C36.5536 62.3618 37.2491 69.3197 40.5126 75.1041C38.1488 78.7942 35.7097 83.461 33.0779 89.6344C32.8651 90.1349 33.1032 90.7121 33.6112 90.9226ZM40.6204 57.8807C42.4077 53.6744 46.2345 50.7923 51.6864 49.5461C66.115 46.2482 78.9678 40.0053 84.9257 33.5636C85.9929 54.1506 76.185 68.6959 65.629 74.1268C58.2181 77.9396 46.6102 75.5823 43.1445 74.7473C47.6608 68.1561 51.9431 65.0386 56.8823 61.4482L57.3238 61.1274C61.4332 58.1385 64.4813 56.2613 67.1703 54.6051C71.8515 51.7217 75.2341 49.6386 80.4938 43.9466C80.8649 43.5452 80.8356 42.9228 80.4287 42.5568C80.021 42.1908 79.3907 42.2196 79.0196 42.621C73.9448 48.1129 70.6599 50.1357 66.1137 52.9358C63.3941 54.611 60.3114 56.5092 56.1402 59.5441L55.6993 59.8641C50.6863 63.5077 46.3302 66.6751 41.7641 73.2269C39.2127 68.1561 38.7379 62.312 40.6204 57.8807Z"/>
</mask>
<path d="M33.6112 90.9226C33.7375 90.9751 33.8685 91 33.9975 91C34.3865 91 34.7569 90.7737 34.9171 90.3972C37.4226 84.521 39.7453 80.0438 41.9935 76.492C43.5408 76.9013 48.9874 78.2197 54.9779 78.2197C58.9197 78.2197 63.0975 77.6484 66.5519 75.8715C78.1186 69.9205 88.8442 53.7058 86.7323 30.8948C86.6938 30.4809 86.3965 30.1359 85.9889 30.0316C85.5813 29.9273 85.1511 30.0867 84.9144 30.4304C80.3276 37.0727 66.4781 44.1454 51.2362 47.6289C45.1333 49.024 40.8258 52.3055 38.7805 57.1205C36.5536 62.3618 37.2491 69.3197 40.5126 75.1041C38.1488 78.7942 35.7097 83.461 33.0779 89.6344C32.8651 90.1349 33.1032 90.7121 33.6112 90.9226ZM40.6204 57.8807C42.4077 53.6744 46.2345 50.7923 51.6864 49.5461C66.115 46.2482 78.9678 40.0053 84.9257 33.5636C85.9929 54.1506 76.185 68.6959 65.629 74.1268C58.2181 77.9396 46.6102 75.5823 43.1445 74.7473C47.6608 68.1561 51.9431 65.0386 56.8823 61.4482L57.3238 61.1274C61.4332 58.1385 64.4813 56.2613 67.1703 54.6051C71.8515 51.7217 75.2341 49.6386 80.4938 43.9466C80.8649 43.5452 80.8356 42.9228 80.4287 42.5568C80.021 42.1908 79.3907 42.2196 79.0196 42.621C73.9448 48.1129 70.6599 50.1357 66.1137 52.9358C63.3941 54.611 60.3114 56.5092 56.1402 59.5441L55.6993 59.8641C50.6863 63.5077 46.3302 66.6751 41.7641 73.2269C39.2127 68.1561 38.7379 62.312 40.6204 57.8807Z" fill="#3B887C"/>
<path d="M33.6112 90.9226L34.3783 89.0756L34.3769 89.075L33.6112 90.9226ZM34.9171 90.3972L33.0774 89.6128L33.0769 89.6139L34.9171 90.3972ZM41.9935 76.492L42.5049 74.5585L41.0876 74.1836L40.3036 75.4223L41.9935 76.492ZM66.5519 75.8715L67.4667 77.65L67.4669 77.65L66.5519 75.8715ZM86.7323 30.8948L88.7238 30.7104L88.7237 30.7092L86.7323 30.8948ZM84.9144 30.4304L86.5601 31.5668L86.5615 31.5648L84.9144 30.4304ZM51.2362 47.6289L50.7906 45.6792L50.7905 45.6792L51.2362 47.6289ZM38.7805 57.1205L40.6212 57.9026L40.6213 57.9024L38.7805 57.1205ZM40.5126 75.1041L42.1967 76.1829L42.8459 75.1695L42.2545 74.1214L40.5126 75.1041ZM33.0779 89.6344L31.2381 88.8501L31.2373 88.8518L33.0779 89.6344ZM40.6204 57.8807L38.7797 57.0985L38.7796 57.0987L40.6204 57.8807ZM51.6864 49.5461L51.2407 47.5964L51.2407 47.5964L51.6864 49.5461ZM84.9257 33.5636L86.923 33.4601L86.6775 28.7241L83.4574 32.2056L84.9257 33.5636ZM65.629 74.1268L64.714 72.3484L64.714 72.3484L65.629 74.1268ZM43.1445 74.7473L41.4946 73.6168L39.8537 76.0117L42.6761 76.6917L43.1445 74.7473ZM56.8823 61.4482L55.7068 59.83L55.7063 59.8304L56.8823 61.4482ZM57.3238 61.1274L58.4992 62.7455L58.5002 62.7448L57.3238 61.1274ZM67.1703 54.6051L68.2191 56.308L68.2192 56.308L67.1703 54.6051ZM80.4938 43.9466L79.0251 42.5891L79.0249 42.5893L80.4938 43.9466ZM80.4287 42.5568L81.7661 41.0697L81.7649 41.0686L80.4287 42.5568ZM79.0196 42.621L77.5509 41.2635L77.5507 41.2637L79.0196 42.621ZM66.1137 52.9358L65.0649 51.2329L65.0648 51.2329L66.1137 52.9358ZM56.1402 59.5441L57.3152 61.1625L57.3169 61.1613L56.1402 59.5441ZM55.6993 59.8641L54.5243 58.2457L54.5235 58.2463L55.6993 59.8641ZM41.7641 73.2269L39.9775 74.1258L41.4859 77.1239L43.4049 74.3705L41.7641 73.2269ZM32.844 92.7696C33.2175 92.9247 33.6095 93 33.9975 93V89C34.1275 89 34.2576 89.0254 34.3783 89.0756L32.844 92.7696ZM33.9975 93C35.1465 93 36.267 92.3326 36.7574 91.1805L33.0769 89.6139C33.2468 89.2148 33.6265 89 33.9975 89V93ZM36.7569 91.1817C39.2326 85.3754 41.5074 80.9993 43.6834 77.5617L40.3036 75.4223C37.9831 79.0882 35.6127 83.6666 33.0774 89.6128L36.7569 91.1817ZM41.482 78.4255C43.0947 78.8521 48.7343 80.2197 54.9779 80.2197V76.2197C49.2404 76.2197 43.9869 74.9505 42.5049 74.5585L41.482 78.4255ZM54.9779 80.2197C59.0723 80.2197 63.6118 79.6329 67.4667 77.65L65.6371 74.093C62.5832 75.6639 58.767 76.2197 54.9779 76.2197V80.2197ZM67.4669 77.65C79.854 71.2768 90.9006 54.2226 88.7238 30.7104L84.7409 31.0791C86.7878 53.1891 76.3833 68.5641 65.6369 74.0931L67.4669 77.65ZM88.7237 30.7092C88.6054 29.4397 87.6968 28.4041 86.4847 28.094L85.4932 31.9692C85.0962 31.8676 84.7821 31.5221 84.741 31.0803L88.7237 30.7092ZM86.4847 28.094C85.2757 27.7847 83.9856 28.2529 83.2673 29.2959L86.5615 31.5648C86.3166 31.9205 85.8869 32.0699 85.4932 31.9692L86.4847 28.094ZM83.2686 29.2939C81.259 32.2041 77.0065 35.4481 71.1613 38.433C65.379 41.3859 58.2636 43.9712 50.7906 45.6792L51.6818 49.5786C59.4507 47.803 66.881 45.1103 72.9806 41.9954C79.0174 38.9125 83.9829 35.299 86.5601 31.5668L83.2686 29.2939ZM50.7905 45.6792C44.2019 47.1853 39.2871 50.8125 36.9397 56.3385L40.6213 57.9024C42.3646 53.7984 46.0648 50.8627 51.6819 49.5786L50.7905 45.6792ZM36.9397 56.3384C34.4242 62.2591 35.2644 69.8722 38.7708 76.0869L42.2545 74.1214C39.2337 68.7672 38.6829 62.4645 40.6212 57.9026L36.9397 56.3384ZM38.8286 74.0253C36.3895 77.8328 33.9009 82.6041 31.2381 88.8501L34.9177 90.4187C37.5186 84.3179 39.9081 79.7556 42.1967 76.1829L38.8286 74.0253ZM31.2373 88.8518C30.5834 90.3898 31.325 92.1401 32.8454 92.7702L34.3769 89.075C34.8813 89.2841 35.1468 89.8799 34.9184 90.417L31.2373 88.8518ZM42.4611 58.6629C43.9405 55.1812 47.1482 52.635 52.1321 51.4958L51.2407 47.5964C45.3208 48.9496 40.875 52.1675 38.7797 57.0985L42.4611 58.6629ZM52.132 51.4958C66.7239 48.1606 80.0374 41.7943 86.394 34.9216L83.4574 32.2056C77.8981 38.2163 65.5062 44.3358 51.2407 47.5964L52.132 51.4958ZM82.9284 33.6672C83.961 53.5859 74.4717 67.3282 64.714 72.3484L66.5439 75.9053C77.8983 70.0636 88.0249 54.7152 86.923 33.4601L82.9284 33.6672ZM64.714 72.3484C61.4801 74.0122 57.1527 74.3937 53.0091 74.1826C48.9183 73.9742 45.2823 73.2051 43.6129 72.8029L42.6761 76.6917C44.4724 77.1245 48.3732 77.9516 52.8055 78.1774C57.185 78.4005 62.367 78.0542 66.5439 75.9053L64.714 72.3484ZM44.7943 75.8778C49.1055 69.5861 53.1482 66.6351 58.0582 63.0659L55.7063 59.8304C50.7379 63.4421 46.2162 66.7262 41.4946 73.6168L44.7943 75.8778ZM58.0577 63.0663L58.4992 62.7455L56.1483 59.5093L55.7068 59.83L58.0577 63.0663ZM58.5002 62.7448C62.5447 59.803 65.5389 57.9587 68.2191 56.308L66.1215 52.9022C63.4236 54.5638 60.3216 56.4739 56.1474 59.51L58.5002 62.7448ZM68.2192 56.308C72.9596 53.3881 76.5211 51.1928 81.9627 45.304L79.0249 42.5893C73.9471 48.0844 70.7434 50.0553 66.1214 52.9022L68.2192 56.308ZM81.9625 45.3042C83.0925 44.0817 83 42.1795 81.7661 41.0697L79.0912 44.0438C78.6712 43.666 78.6372 43.0088 79.0251 42.5891L81.9625 45.3042ZM81.7649 41.0686C80.5462 39.9744 78.6663 40.0568 77.5509 41.2635L80.4883 43.9786C80.115 44.3825 79.4959 44.4071 79.0925 44.0449L81.7649 41.0686ZM77.5507 41.2637C72.6584 46.5581 69.5531 48.4686 65.0649 51.2329L67.1625 54.6387C71.7668 51.8029 75.2312 49.6678 80.4885 43.9784L77.5507 41.2637ZM65.0648 51.2329C62.3363 52.9136 59.1996 54.8447 54.9635 57.9268L57.3169 61.1613C61.4231 58.1737 64.4519 56.3084 67.1626 54.6387L65.0648 51.2329ZM54.9651 57.9256L54.5243 58.2457L56.8744 61.4826L57.3152 61.1625L54.9651 57.9256ZM54.5235 58.2463C49.486 61.9077 44.8935 65.2387 40.1232 72.0834L43.4049 74.3705C47.767 68.1115 51.8866 65.1078 56.8752 61.482L54.5235 58.2463ZM43.5507 72.328C41.2026 67.6613 40.8567 62.4396 42.4612 58.6627L38.7796 57.0987C36.6191 62.1844 37.2227 68.6509 39.9775 74.1258L43.5507 72.328Z" fill="#184D47" mask="url(#path-2-inside-1)"/>
</svg>
